<mxfile host="65bd71144e" modified="2021-02-12T14:00:17.116Z" agent="5.0 (Windows NT 10.0; Win64; x64) AppleWebKit/537.36 (KHTML, like Gecko) Code/1.53.2 Chrome/87.0.4280.141 Electron/11.2.1 Safari/537.36" version="14.2.4" etag="moScHX8_JrgimMAffy2T" type="embed">
    <diagram id="DlZsZiLB8Cw0Pm3X5Abe" name="初回通信">
        <mxGraphModel dx="544" dy="790" grid="1" gridSize="10" guides="1" tooltips="1" connect="1" arrows="1" fold="1" page="1" pageScale="1" pageWidth="827" pageHeight="1169" math="0" shadow="0">
            <root>
                <mxCell id="0"/>
                <mxCell id="1" parent="0"/>
                <mxCell id="2" value="ハウスNo" style="rounded=0;whiteSpace=wrap;html=1;" vertex="1" parent="1">
                    <mxGeometry x="120" y="320" width="80" height="40" as="geometry"/>
                </mxCell>
                <mxCell id="3" value="ハウス内ID" style="rounded=0;whiteSpace=wrap;html=1;" vertex="1" parent="1">
                    <mxGeometry x="200" y="320" width="80" height="40" as="geometry"/>
                </mxCell>
                <mxCell id="5" value="クライアント&lt;br&gt;種別ID" style="rounded=0;whiteSpace=wrap;html=1;" vertex="1" parent="1">
                    <mxGeometry x="280" y="320" width="80" height="40" as="geometry"/>
                </mxCell>
            </root>
        </mxGraphModel>
    </diagram>
</mxfile>